<svg xmlns="http://www.w3.org/2000/svg" width="27" height="27" viewBox="0 0 27 27">
  <g id="vuesax_linear_shop-add" data-name="vuesax/linear/shop-add" transform="translate(-751 -184)">
    <g id="shop-add" transform="translate(751 184)">
      <path id="Vector" d="M13.28,0V4.49c0,4.49-1.79,6.29-6.29,6.29H1.6a11.347,11.347,0,0,1-1.6-.1" transform="translate(10.73 14.22)" fill="none" stroke="#1968df" stroke-linecap="round" stroke-linejoin="round" stroke-width="1.5"/>
      <path id="Vector-2" data-name="Vector" d="M0,4.3V0" transform="translate(3.04 12.929)" fill="none" stroke="#1968df" stroke-linecap="round" stroke-linejoin="round" stroke-width="1.5"/>
      <path id="Vector-3" data-name="Vector" d="M3.026,10a2.965,2.965,0,0,0,3-3.32L5.356,0H.686L.016,6.68A2.972,2.972,0,0,0,3.026,10Z" transform="translate(10.508 2)" fill="none" stroke="#1968df" stroke-linecap="round" stroke-linejoin="round" stroke-width="1.5"/>
      <path id="Vector-4" data-name="Vector" d="M4.01,10a3.257,3.257,0,0,0,3.3-3.65L7.03,3.6C6.67,1,5.67,0,3.05,0H0L.7,7.01A3.416,3.416,0,0,0,4.01,10Z" transform="translate(17.32 2)" fill="none" stroke="#1968df" stroke-linecap="round" stroke-linejoin="round" stroke-width="1.5"/>
      <path id="Vector-5" data-name="Vector" d="M3.328,10a3.39,3.39,0,0,0,3.3-2.99l.22-2.21L7.328,0H4.278C1.658,0,.658,1,.3,3.6L.018,6.35A3.264,3.264,0,0,0,3.328,10Z" transform="translate(2.342 2)" fill="none" stroke="#1968df" stroke-linecap="round" stroke-linejoin="round" stroke-width="1.5"/>
      <path id="Vector-6" data-name="Vector" d="M8,4a3.921,3.921,0,0,1-.58,2.06,3.333,3.333,0,0,1-.69.84.474.474,0,0,1-.1.1A3.96,3.96,0,0,1,.97,6.59C.95,6.56.92,6.54.9,6.51a2.826,2.826,0,0,1-.32-.45A3.921,3.921,0,0,1,0,4,3.97,3.97,0,0,1,1.5.88,3.172,3.172,0,0,1,2.04.52,3.963,3.963,0,0,1,6.6.97a2.423,2.423,0,0,1,.33.31A4.011,4.011,0,0,1,8,4Z" transform="translate(1 18)" fill="none" stroke="#1968df" stroke-linecap="round" stroke-linejoin="round" stroke-width="1.5"/>
      <g id="Group" transform="translate(3.51 20.52)">
        <path id="Vector-7" data-name="Vector" d="M2.98,0H0" transform="translate(0 1.46)" fill="none" stroke="#1968df" stroke-linecap="round" stroke-linejoin="round" stroke-width="1.5"/>
        <path id="Vector-8" data-name="Vector" d="M0,0V2.99" transform="translate(1.49)" fill="none" stroke="#1968df" stroke-linecap="round" stroke-linejoin="round" stroke-width="1.5"/>
      </g>
      <path id="Vector-9" data-name="Vector" d="M0,0H27V27H0Z" fill="none" opacity="0"/>
    </g>
  </g>
</svg>
