<svg xmlns="http://www.w3.org/2000/svg" width="27" height="27" viewBox="0 0 27 27">
  <g id="vuesax_linear_shopping-cart" data-name="vuesax/linear/shopping-cart" transform="translate(-622 -188)">
    <g id="shopping-cart" transform="translate(622 188)">
      <path id="Vector" d="M0,0H1.952A2.094,2.094,0,0,1,4.017,2.276L3.085,13.613a3.164,3.164,0,0,0,3.13,3.449H18.165a3.247,3.247,0,0,0,3.153-2.971l.606-8.537a3.138,3.138,0,0,0-3.153-3.426H4.286" transform="translate(2.276 2.276)" fill="none" stroke="#707070" stroke-linecap="round" stroke-linejoin="round" stroke-width="1.5"/>
      <path id="Vector-2" data-name="Vector" d="M2.846,1.423A1.423,1.423,0,1,1,1.423,0,1.423,1.423,0,0,1,2.846,1.423Z" transform="translate(16.852 21.878)" fill="none" stroke="#707070" stroke-linecap="round" stroke-linejoin="round" stroke-width="1.5"/>
      <path id="Vector-3" data-name="Vector" d="M2.846,1.423A1.423,1.423,0,1,1,1.423,0,1.423,1.423,0,0,1,2.846,1.423Z" transform="translate(7.864 21.878)" fill="none" stroke="#707070" stroke-linecap="round" stroke-linejoin="round" stroke-width="1.5"/>
      <path id="Vector-4" data-name="Vector" d="M0,0H13.659" transform="translate(9.926 9)" fill="none" stroke="#707070" stroke-linecap="round" stroke-linejoin="round" stroke-width="1.5"/>
      <path id="Vector-5" data-name="Vector" d="M0,0H27V27H0Z" fill="none" opacity="0"/>
    </g>
  </g>
</svg>
