<svg xmlns="http://www.w3.org/2000/svg" width="227.004" height="259.415" viewBox="0 0 227.004 259.415">
  <g id="svgg" transform="translate(-61.415 -53.252)">
    <path id="path0" d="M216.743,53.716c-8.779,1.064-22.628,5.544-22.628,7.321,0,.239.232,2.512.516,5.05a54.756,54.756,0,0,1-.079,13.04c-.25,1.4.05,1.342,2.929-.538,32.066-20.933,73.874,2.239,73.791,40.9-.083,38.8-42.14,61.749-74.13,40.445-4.421-2.944-4.24-3.025-3.377,1.5.634,3.323.893,5.714,1.56,14.377l.235,3.049,2.086,1.019c29.634,14.472,68.594.151,83.893-30.838C304.425,102.685,267,47.626,216.743,53.716M109.385,64.769c-27.466,2.359-47.926,25.081-47.97,53.272-.02,12.574,2.4,20.636,9.218,30.769,13.89,20.628,42.375,28.7,64.822,18.375,3.407-1.568,3.437-1.613,3.767-5.548a83.51,83.51,0,0,1,1.954-12.2c.957-3.774.847-3.9-1.536-1.792-24.911,22.076-64.276,4.058-64.276-29.421,0-31.081,35.563-50.459,60.177-32.79,2.312,1.66,2.281,1.7,2.146-3.1-.066-2.339.03-5.832.211-7.763.408-4.338.417-4.322-3.071-5.784a55.651,55.651,0,0,0-25.442-4.02m32.545,8.787c-.635,1.654.635,10.712,2.189,15.6,1.537,4.841,4.765,10.672,6.15,11.112.879.279,9.663-8.505,9.383-9.384-.395-1.242-17.483-17.951-17.722-17.329m28.354,36.4c-4.029,4.078-5.364,6.207-5.375,8.572-.008,1.707-1.1,3.926-3.5,7.144A155.361,155.361,0,0,0,149.9,144.206,126.454,126.454,0,0,0,144.56,157.2c-1.215,3.515-1.584,5.135-1.168,5.135.782,0,37.522-37.167,38.409-38.856,2.379-4.528,1.086-9.636-3.656-14.447-3.589-3.64-3.327-3.671-7.862.922" transform="translate(0 0)" fill="#04acdc" fill-rule="evenodd"/>
    <path id="path1" d="M180.36,64.02c-6.482,2.074-8.686,13.867-3.45,18.463,6.287,5.52,15.5-3.786,12.71-12.833-1.426-4.616-5.221-6.923-9.26-5.63m4.9,24.386c-24.032,24.092-24.776,24.9-25.6,27.728-2.047,7.042-.61,11,6.655,18.328,5.37,5.416,5.326,5.39,6.4,3.691,3.071-4.854,6.022-9.251,7.583-11.3,2.4-3.157,2.746-3.889,3.151-6.684.47-3.239,1.436-4.6,7.264-10.251,6.8-6.588,9.068-9.544,12.349-16.068a48.128,48.128,0,0,0,3.052-7.446c2.572-7.281,4.69-21.5,3.2-21.5-.376,0-9.535,8.95-24.058,23.509m1.834,52.985c-5.093,5.1-6.492,6.68-6.342,7.152.292.921,29.5,29.969,30.135,29.969,1.89,0-1.476-15.994-5.523-26.249-2.506-6.349-9.385-17.09-11.1-17.329-.46-.064-2.466,1.742-7.172,6.457" transform="translate(-19.248 -2.058)" fill="#f99540" fill-rule="evenodd"/>
  </g>
  <text id="jacando" transform="translate(15.002 196.415)" fill="#00acdc" font-size="61" font-family="MS-Gothic, MS Gothic" letter-spacing="-0.045em"><tspan x="0" y="0">jacando</tspan></text>
  <text id="shop" transform="translate(56.002 250.415)" fill="#00acdc" font-size="61" font-family="MS-Gothic, MS Gothic" letter-spacing="-0.045em"><tspan x="0" y="0">shop</tspan></text>
</svg>
