<svg xmlns="http://www.w3.org/2000/svg" width="285.173" height="68.571" viewBox="0 0 285.173 68.571">
  <g id="svgg">
    <path id="path0" d="M141.926,53.492c-4.55.551-11.729,2.874-11.729,3.795,0,.124.12,1.3.267,2.618a28.382,28.382,0,0,1-.041,6.759c-.13.724.026.7,1.518-.279,16.621-10.85,38.291,1.16,38.248,21.2-.043,20.113-21.842,32.006-38.424,20.964-2.292-1.526-2.2-1.568-1.75.78a61.533,61.533,0,0,1,.808,7.452l.122,1.58,1.081.528c15.36,7.5,35.554.078,43.484-15.984,11.863-24.028-7.536-52.567-33.585-49.41M86.279,59.222c-14.236,1.223-24.841,13-24.864,27.613-.01,6.517,1.242,10.7,4.778,15.948,7.2,10.692,21.964,14.878,33.6,9.524,1.766-.813,1.782-.836,1.953-2.875a43.284,43.284,0,0,1,1.013-6.322c.5-1.956.439-2.023-.8-.929-12.912,11.443-33.316,2.1-33.316-15.25,0-16.11,18.433-26.154,31.191-17,1.2.86,1.182.883,1.113-1.607-.034-1.212.015-3.023.109-4.024.211-2.249.216-2.24-1.592-3a28.845,28.845,0,0,0-13.187-2.084m16.869,4.554c-.329.858.329,5.552,1.135,8.086.8,2.509,2.47,5.532,3.188,5.76.456.145,5.009-4.408,4.863-4.864-.2-.644-9.062-9.3-9.186-8.982m14.7,18.865c-2.088,2.114-2.78,3.217-2.786,4.443,0,.885-.568,2.035-1.814,3.7a80.528,80.528,0,0,0-5.968,9.609,65.544,65.544,0,0,0-2.765,6.734c-.63,1.822-.821,2.662-.606,2.662.405,0,19.449-19.264,19.909-20.14,1.233-2.347.563-4.994-1.895-7.488-1.86-1.887-1.724-1.9-4.075.478" transform="translate(-61.415 -53.252)" fill="#04acdc" fill-rule="evenodd"/>
    <path id="path1" d="M169.978,63.849c-3.36,1.075-4.5,7.187-1.788,9.57,3.259,2.861,8.036-1.963,6.588-6.652-.739-2.393-2.706-3.588-4.8-2.918m2.537,12.64c-12.456,12.487-12.842,12.905-13.269,14.372-1.061,3.65-.316,5.7,3.449,9.5,2.784,2.807,2.761,2.794,3.318,1.913,1.592-2.516,3.121-4.8,3.931-5.859,1.244-1.636,1.423-2.016,1.633-3.464.244-1.679.744-2.386,3.765-5.313,3.523-3.415,4.7-4.947,6.4-8.329a24.945,24.945,0,0,0,1.582-3.859c1.333-3.774,2.431-11.146,1.659-11.146-.195,0-4.942,4.639-12.47,12.186m.951,27.464c-2.64,2.645-3.365,3.462-3.287,3.707.151.477,15.291,15.534,15.62,15.534.979,0-.765-8.29-2.863-13.605-1.3-3.291-4.864-8.858-5.753-8.982-.238-.033-1.278.9-3.718,3.347" transform="translate(-118.303 -59.334)" fill="#f99540" fill-rule="evenodd"/>
  </g>
  <text id="jacando" transform="translate(124.918 44.477)" fill="#00acdc" font-size="30" font-family="MS-Gothic, MS Gothic" letter-spacing="-0.045em"><tspan x="0" y="0">jacando</tspan></text>
  <text id="shop" transform="translate(229.173 44.477)" fill="#00acdc" font-size="30" font-family="MS-Gothic, MS Gothic" letter-spacing="-0.045em"><tspan x="0" y="0">shop</tspan></text>
</svg>
